<?xml version="1.0" encoding="UTF-8"?>
<svg id="Capa_1" data-name="Capa 1" xmlns="http://www.w3.org/2000/svg" viewBox="0 0 349.29 99.24">
  <defs>
    <style>
      .cls-1 {
        fill: #ffffff;
      }
    </style>
  </defs>
  <path class="cls-1" d="m94.62,45.9h6.47l11.21,29.88,11.26-29.88h6.47v35.56h-4.48v-29.58h-.1l-11.11,29.58h-4.03l-11.11-29.58h-.1v29.58h-4.48v-35.56Zm65.4,35.46c-.75.45-1.69.7-3.04.7-2.19,0-3.59-1.2-3.59-3.98-2.34,2.74-5.48,3.98-9.06,3.98-4.68,0-8.52-2.09-8.52-7.22,0-5.83,4.33-7.07,8.72-7.92,4.68-.9,8.67-.6,8.67-3.79,0-3.69-3.04-4.28-5.73-4.28-3.59,0-6.23,1.1-6.43,4.88h-4.23c.25-6.38,5.18-8.62,10.91-8.62,4.63,0,9.66,1.05,9.66,7.07v13.25c0,1.99,0,2.89,1.34,2.89.35,0,.75-.05,1.29-.25v3.29Zm-6.87-13.2c-1.64,1.2-4.83,1.24-7.67,1.74-2.79.5-5.18,1.49-5.18,4.63,0,2.79,2.39,3.79,4.98,3.79,5.58,0,7.87-3.49,7.87-5.83v-4.33Zm33.82,13.3h-4.23v-3.49h-.1c-1.39,2.84-4.68,4.08-8.22,4.08-7.92,0-11.85-6.28-11.85-13.55s3.88-13.4,11.75-13.4c2.64,0,6.43,1,8.32,4.03h.1v-13.25h4.23v35.56Zm-11.95-3.14c5.68,0,7.87-4.88,7.87-9.71,0-5.08-2.29-9.76-8.12-9.76s-7.72,4.93-7.72,9.96,2.49,9.51,7.97,9.51Zm18.33-22.61h3.98v5.43h.1c2.04-4.13,4.88-6.18,9.46-6.03v4.48c-6.82,0-9.31,3.88-9.31,10.41v11.46h-4.23v-25.75Zm21.22-4.63h-4.23v-5.18h4.23v5.18Zm-4.23,4.63h4.23v25.75h-4.23v-25.75Zm33.82,25.75h-4.23v-3.49h-.1c-1.39,2.84-4.68,4.08-8.22,4.08-7.92,0-11.85-6.28-11.85-13.55s3.88-13.4,11.75-13.4c2.64,0,6.43,1,8.32,4.03h.1v-13.25h4.23v35.56Zm-11.95-3.14c5.68,0,7.87-4.88,7.87-9.71,0-5.08-2.29-9.76-8.12-9.76s-7.72,4.93-7.72,9.96,2.49,9.51,7.97,9.51Zm22.96-27.24h-4.23v-5.18h4.23v5.18Zm-4.23,4.63h4.23v25.75h-4.23v-25.75Zm13.4,17.63c.15,3.79,3.44,4.98,6.92,4.98,2.64,0,6.23-.6,6.23-3.84s-4.18-3.83-8.42-4.78c-4.18-.95-8.42-2.34-8.42-7.27,0-5.18,5.13-7.32,9.61-7.32,5.68,0,10.21,1.79,10.56,8.07h-4.23c-.3-3.29-3.19-4.33-5.98-4.33-2.54,0-5.48.7-5.48,3.29,0,3.04,4.48,3.54,8.42,4.48,4.23.95,8.42,2.34,8.42,7.32,0,6.13-5.73,8.12-10.96,8.12-5.78,0-10.66-2.34-10.91-8.72h4.23Zm28.19-17.63h5.13v3.74h-5.13v15.99c0,1.94.55,2.29,3.19,2.29h1.94v3.74h-3.24c-4.38,0-6.13-.9-6.13-5.63v-16.39h-4.38v-3.74h4.38v-7.72h4.23v7.72Zm32.62,25.65c-.75.45-1.69.7-3.04.7-2.19,0-3.59-1.2-3.59-3.98-2.34,2.74-5.48,3.98-9.06,3.98-4.68,0-8.52-2.09-8.52-7.22,0-5.83,4.33-7.07,8.72-7.92,4.68-.9,8.67-.6,8.67-3.79,0-3.69-3.04-4.28-5.73-4.28-3.59,0-6.23,1.1-6.43,4.88h-4.23c.25-6.38,5.18-8.62,10.91-8.62,4.63,0,9.66,1.05,9.66,7.07v13.25c0,1.99,0,2.89,1.34,2.89.35,0,.75-.05,1.3-.25v3.29Zm-6.87-13.2c-1.64,1.2-4.83,1.24-7.67,1.74-2.79.5-5.18,1.49-5.18,4.63,0,2.79,2.39,3.79,4.98,3.79,5.58,0,7.87-3.49,7.87-5.83v-4.33Zm13.4,5.18c.15,3.79,3.44,4.98,6.92,4.98,2.64,0,6.23-.6,6.23-3.84s-4.18-3.83-8.42-4.78c-4.18-.95-8.42-2.34-8.42-7.27,0-5.18,5.13-7.32,9.61-7.32,5.68,0,10.21,1.79,10.56,8.07h-4.23c-.3-3.29-3.19-4.33-5.98-4.33-2.54,0-5.48.7-5.48,3.29,0,3.04,4.48,3.54,8.42,4.48,4.23.95,8.42,2.34,8.42,7.32,0,6.13-5.73,8.12-10.96,8.12-5.78,0-10.66-2.34-10.91-8.72h4.23ZM48.59,16.9c.09.24.15.52.13.88.92.44,1.01,1.17.81,1.96-.24.93-.8,1.59-2.25,1.23-.06.71.4,1.39,1.11,1.57.6.15,1.21-.08,1.56-.55,0-.11.02-.21.04-.31.21-.82,1.04-1.31,1.85-1.1.82.21,1.31,1.04,1.1,1.86-.06.24-.18.45-.34.63-.06.57.22,1.15.76,1.45.39.22.84.23,1.23.09-1.09-.54-1.13-1.34-.82-2.16.16-.42.4-.81.74-1.03-.72-2.44-2.87-4.46-5.93-4.5Zm4.98-.43c-.87-1.55-2.29-2.71-4.55-3.86,0,.65-.22,1.08-.58,1.36.63.13,1.12.66,1.19,1.31.14,0,.2.14.2.3,1.83.31,3.33,1.22,4.42,2.46-.17-.53-.39-1.06-.69-1.56Zm-29.22-1.29c-.05.28-.09.56-.12.84.33.13.61.38.81.82,1.01-.05,1.45.54,1.65,1.33.24.93.06,1.78-1.38,2.16.29.66,1.02,1.03,1.74.84.66-.17,1.1-.76,1.12-1.41-.13-.22-.2-.48-.2-.76,0-.84.68-1.52,1.52-1.52s1.53.69,1.53,1.52c0,.15-.02.3-.06.44.18.61.75,1.06,1.42,1.06.74,0,1.35-.54,1.47-1.25-1.5,0-1.88-.79-1.88-1.75,0-.81.27-1.5,1.27-1.69.16-.83.39-1.18,1.05-1.29-.47-.2-.79-.67-.79-1.21-.81-.45-1.61-.56-2.5-.56-2.58,0-4.91.93-6.64,2.42Zm.71-2.29c1.86-1.03,3.82-1.57,5.92-1.57.96,0,1.85.12,2.73.33v-.31c-.14-.21-.23-.47-.23-.75s.09-.53.23-.75v-1.22c-.14-.21-.23-.47-.23-.75-3.92-.36-6.98,1.84-8.42,5.01Zm-7.07,14.08c-.43.2-.91,0-1.11-.42-.11-.24-.11-.51,0-.73-.86.27-1.79.09-2.48-.45-.78.52-1.59.28-2.2-.2-.64-.5-1.19-1.68-.41-2.34-.6-.78-.45-1.78.28-2.24-.13-.22-.2-.49-.2-.76,0-.73.51-1.34,1.2-1.48-.35-.28-.58-.71-.58-1.19,0-.79.6-1.43,1.37-1.51-.16-.24-.26-.53-.26-.84,0-.83.68-1.52,1.52-1.52.14,0,.27.02.4.06-.09-.19-.14-.4-.14-.63,0-.84.68-1.52,1.51-1.52.25,0,.48.06.69.17-.02-1.08.66-1.75,1.5-1.75.32,0,.62.1.87.27.14-.68.75-1.19,1.48-1.19.54,0,1,.28,1.28.7.27-.31.67-.5,1.12-.5.12,0,.23.01.34.04-.07-.17-.1-.35-.1-.54,0-.84.68-1.52,1.52-1.52.29,0,.57.09.8.23-.02-1.08.66-1.76,1.5-1.76.33,0,.65.11.9.3.15-.68.75-1.18,1.48-1.18.42,0,.8.17,1.08.44.24-.52.77-.87,1.37-.87.17,0,.34.03.49.08.27-.3.88-.65,1.27-.79v-1.14h-1.14v-1.16h1.14V0h1.22v1.03h1.14v1.16h-1.14v1.16c.66.24,1,.47,1.27.78.15-.05.31-.08.49-.08.6,0,1.13.36,1.37.87.27-.28.66-.44,1.07-.44.72,0,1.33.51,1.48,1.18.25-.19.56-.3.9-.3.84,0,1.52.68,1.52,1.52.21.1.49.01.78.01.84,0,1.52.68,1.52,1.52,0,.19-.04.38-.1.54.11-.03.22-.04.34-.04.44,0,.84.19,1.12.5.27-.42.74-.7,1.28-.7.72,0,1.33.51,1.48,1.19.25-.17.54-.27.87-.27.84,0,1.52.68,1.52,1.52.18.13.42.07.67.07.84,0,1.52.68,1.52,1.52,0,.22-.05.43-.14.63.12-.04.26-.06.4-.06.84,0,1.51.68,1.51,1.52,0,.31-.09.6-.25.84.77.08,1.37.72,1.37,1.51,0,.49-.23.92-.58,1.19.68.15,1.2.75,1.2,1.48,0,.28-.07.54-.2.76.73.46.88,1.46.28,2.24.78.65.23,1.84-.41,2.34-.61.47-1.42.72-2.2.2-.7.53-1.62.72-2.49.45.11.22.12.49,0,.73-.2.43-.71.61-1.13.41-5.14-2.43-10.94-3.8-17.06-3.8s-11.9,1.36-17.09,3.81Zm-2.3-5.54c.32.23.54.6.69,1,.31.82.27,1.62-.82,2.16.39.14.84.12,1.24-.09.53-.3.82-.88.76-1.45-.16-.18-.28-.39-.34-.63-.21-.81.28-1.64,1.1-1.86.81-.21,1.64.28,1.85,1.1.03.1.04.21.05.31.35.47.96.7,1.56.55.71-.18,1.17-.86,1.11-1.57-1.45.36-2.01-.3-2.25-1.23-.2-.79-.11-1.52.81-1.96-.02-.35.03-.63.16-.87-3.13.07-5.23,2.1-5.91,4.52Zm4.84-6.15c.08-.65.57-1.18,1.2-1.31-.36-.28-.58-.71-.58-1.19-2.31,1-3.74,2.2-4.61,3.81-.33.82-.4,1-.52,1.37,1.09-1.22,2.58-2.12,4.39-2.41l.12-.26Zm16.14-1.96c0,.55-.32,1.01-.79,1.21.66.11.91.46,1.06,1.29,1,.19,1.27.88,1.27,1.69,0,.96-.38,1.74-1.88,1.75.12.71.73,1.25,1.47,1.25.67,0,1.24-.45,1.43-1.06-.05-.14-.07-.29-.07-.44,0-.84.68-1.52,1.53-1.52s1.52.69,1.52,1.52c0,.28-.07.54-.21.76.01.65.46,1.24,1.12,1.41.72.19,1.45-.18,1.74-.84-1.45-.38-1.62-1.23-1.38-2.16.2-.79.63-1.38,1.65-1.33.21-.44.48-.7.81-.82-.03-.28-.07-.55-.12-.82-1.73-1.51-4.07-2.44-6.66-2.44-.88,0-1.68.1-2.51.31l.02.24Zm8.45-.38c-1.42-3.19-4.47-5.42-8.46-5.2.01.43-.07.69-.22.9v1.22c.15.21.23.47.23.75s-.08.54-.23.75v.31c.88-.21,1.76-.33,2.72-.33,2.19,0,4.24.59,5.96,1.6Zm-23.95,10.83c-.57-.04-1.12-.24-1.56-.57-.16.12-.33.21-.54.26-.3.58-.56,1.1-.95,1.51.99-.44,2.01-.85,3.04-1.21Zm24.85-3.04c-.35.85-1.11,1.45-1.98,1.63.99.21,1.97.46,2.93.75-.68-.58-1.05-1.46-.95-2.38Zm-4.06,1.23c-.55-.36-.99-.89-1.2-1.5-.23,0-.38-.02-.52-.06-.36.53-.91.94-1.54,1.15,1.1.1,2.2.23,3.27.41Zm-10.5-.41c-.63-.2-1.18-.62-1.54-1.15-.14.04-.29.06-.45.06-.29.61-.72,1.14-1.28,1.5,1.07-.18,2.16-.31,3.27-.41Zm-7.33-.82c.1.92-.27,1.8-.94,2.38.96-.29,1.94-.54,2.93-.75-.87-.18-1.63-.78-1.98-1.63Zm9.41.7c.51-.02,1.02-.03,1.53-.03s1.03,0,1.53.03c-.81-.39-1.4-1.16-1.53-2.09-.13.92-.72,1.7-1.53,2.09Zm15.44,2.34c1.03.36,2.05.76,3.04,1.21-.38-.42-.65-.93-.75-1.48-.4-.09-.58-.18-.73-.29-.45.33-1,.53-1.56.57Zm6.23-1.13c-.39.7-.13,1.59.57,1.97.7.39,1.58.13,1.97-.57.39-.7.13-1.58-.57-1.97-.7-.39-1.59-.13-1.97.57Zm-10.05-4.34c-.2.78.27,1.57,1.04,1.77.78.2,1.57-.27,1.77-1.04.2-.78-.27-1.57-1.04-1.77-.78-.2-1.57.27-1.77,1.04Zm-30.01,4.2c-.39-.71-1.27-.96-1.97-.58-.7.39-.96,1.27-.57,1.98.39.7,1.27.96,1.97.57.7-.38.96-1.27.57-1.97Zm9.84-4.2c-.2-.78-.99-1.25-1.77-1.04-.78.2-1.25.99-1.04,1.77.2.78.99,1.24,1.77,1.04.78-.2,1.24-.99,1.04-1.77Zm11.54-1.09c0-.8-.65-1.46-1.45-1.46s-1.45.65-1.45,1.46.65,1.45,1.45,1.45,1.45-.65,1.45-1.45Zm15.28,11.56l.28,1.15-1.15.64c.18.11.25.34.16.54-.1.22-.33.33-.55.23-4.7-2.22-9.93-3.44-15.48-3.44s-10.77,1.22-15.47,3.44c-.22.1-.45-.01-.55-.23-.09-.19-.01-.43.16-.54l-1.15-.64.28-1.15c-.17.04-.35-.05-.42-.21-.09-.19-.03-.4.15-.49,5.17-2.43,10.91-3.79,17-3.79s11.83,1.35,16.99,3.79c.19.09.25.31.16.49-.07.16-.25.25-.42.21Zm-16.73,4.43c-17.04,0-30.97,13.89-30.97,30.97s13.93,30.97,30.97,30.97,30.97-13.93,30.97-30.97-13.93-30.97-30.97-30.97Zm0-4.15c19.34,0,35.09,15.78,35.09,35.12s-15.74,35.08-35.09,35.08S0,83.46,0,64.15,15.74,29.03,35.08,29.03Zm29.39,34.95c0,7.16-2.55,13.71-6.85,18.81l-3.36-3.36c3.62-4.4,5.97-8.75,5.97-15.73,0-7.33-3.84-15.68-9.99-19.93l-3.95,4.04c2.09,1.57,3.77,3.22,5.16,5.44l-3.33,2.87c-1.22-2.18-2.81-3.75-4.86-5.15l-8.19,8.65-8.49-8.77c-4.32,3.02-6.86,7.42-6.97,12.76-.14,7.07,4.43,12.17,10.89,14.32v-14.52h10.28v3.23h-6.15v3.65h6.07v3.66h-6.07v4.68c4.43.23,9.26-2.49,12.08-5.67l3.17,3.21c-3.81,4.47-9.43,6.84-15.26,6.88v4.49h-4.12v-4.98c-8.89-2.21-15.29-10.1-15.17-19.37.08-6.33,3.44-11.62,8.34-15.32l-4-4.13c-6.38,5.22-9.8,11.66-10.09,19.94-.22,7.45,3.67,13.41,6.06,15.85l-2.96,3.03c-4.41-5.1-6.99-11.38-6.99-18.58,0-10.88,6.02-20.45,14.87-25.53l6.94,7.25c2.38-.95,4.91-1.43,7.61-1.43,2.6.04,4.89.5,7.3,1.42l.35-.34,6.75-6.97c8.93,5.08,14.95,14.65,14.95,25.61Zm-25.22-14.87c-1.41-.34-2.8-.63-4.26-.68-1.46-.06-2.9.24-4.31.56l4.03,4.16.44.3,4.1-4.34Zm-.08,7.95l17.02,17.6c-.95,1.59-2.13,3.16-3.54,4.85l4.27,4.25c-2.82,3.07-6.25,5.59-10.12,7.3l-7.17-7.32c4.7-1.09,8.77-3.79,11.89-7.62l-4.86-4.91c-2.6,3.1-6.58,5.99-10.81,6.26v-2.29h6.08v-6.07h-6.08v-1.25h6.15v-5.64h-12.68v10.96l-8.48-8.66c-.01-.29-.01-.58-.01-.88.11-4.81,2.39-8.71,5.62-11.2l7.97,8.22.69.69,4.07-4.3Zm-24.34,1.32l-2.54-2.6c1.41-3.93,3.84-7.4,7.31-10.38l2.29,2.37c-3.31,2.7-5.88,6.4-7.05,10.62Z"/>
</svg>
